<?xml version="1.0" encoding="utf-8"?>
<!-- Generator: Adobe Illustrator 24.3.0, SVG Export Plug-In . SVG Version: 6.00 Build 0)  -->
<svg version="1.1" id="Capa_1" xmlns="http://www.w3.org/2000/svg" xmlns:xlink="http://www.w3.org/1999/xlink" x="0px" y="0px"
	 viewBox="0 0 512 512" style="enable-background:new 0 0 512 512;" xml:space="preserve">
<style type="text/css">
	.st0{fill:#000923;}
	.st1{fill:#665DD2;}
</style>
<circle class="st0" cx="256" cy="256" r="246.5"/>
<g>
	<g>
		<path class="st1" d="M375.5,245.8h-33.1c-4.5,0-8.9,0.6-13,1.7c-8.2-16.1-24.9-27.1-44.1-27.1h-58.5c-19.3,0-36,11.1-44.1,27.1
			c-4.1-1.1-8.5-1.7-13-1.7h-33.1c-27.3,0-49.5,22.2-49.5,49.5v52.9c0,16.4,13.3,29.7,29.7,29.7H197v-29.9c0-0.3,0-0.5,0.1-0.7
			v-77.4c0-16.4,13.3-29.7,29.7-29.7h58.5c16.4,0,29.7,13.3,29.7,29.7v61.2c0.3,1,0.4,2.1,0,3.1v23.9h-0.1v19.8h80.4
			c16.4,0,29.7-13.3,29.7-29.7v-52.9C425,268,402.8,245.8,375.5,245.8z M177.2,269.9v88.2h-60.5c-5.5,0-9.9-4.4-9.9-9.9v-52.9
			c0-16.4,13.3-29.7,29.7-29.7h33.1c2.7,0,5.3,0.4,7.8,1C177.3,267.8,177.2,268.8,177.2,269.9z M405.2,348.2c0,5.5-4.4,9.9-9.9,9.9
			h-60.5v-88.2c0-1.1,0-2.2-0.1-3.3c2.5-0.7,5.1-1,7.8-1h33.1c16.4,0,29.7,13.3,29.7,29.7V348.2z"/>
	</g>
</g>
<g>
	<g>
		<path class="st1" d="M153.1,152.3c-24.3,0-44,19.7-44,44c0,24.3,19.7,44,44,44c24.3,0,44-19.7,44-44S177.3,152.3,153.1,152.3z
			 M153.1,220.5c-13.3,0-24.2-10.9-24.2-24.2c0-13.3,10.9-24.2,24.2-24.2s24.2,10.9,24.2,24.2S166.4,220.5,153.1,220.5z"/>
	</g>
</g>
<g>
	<g>
		<path class="st1" d="M256,97.7c-32.4,0-58.8,26.4-58.8,58.8s26.4,58.8,58.8,58.8s58.8-26.4,58.8-58.8
			C314.8,124,288.4,97.7,256,97.7z M256,195.4c-21.5,0-39-17.5-39-39c0-21.5,17.5-39,39-39c21.5,0,39,17.5,39,39
			S277.5,195.4,256,195.4z"/>
	</g>
</g>
<g>
	<g>
		<path class="st1" d="M358.9,152.3c-24.3,0-44,19.7-44,44c0,24.3,19.7,44,44,44c24.3,0,44-19.7,44-44S383.2,152.3,358.9,152.3z
			 M358.9,220.5c-13.3,0-24.2-10.9-24.2-24.2c0-13.3,10.9-24.2,24.2-24.2c13.3,0,24.2,10.9,24.2,24.2S372.3,220.5,358.9,220.5z"/>
	</g>
</g>
</svg>
