<?xml version="1.0" encoding="utf-8"?>
<!-- Generator: Adobe Illustrator 24.3.0, SVG Export Plug-In . SVG Version: 6.00 Build 0)  -->
<svg version="1.1" id="Calque_1" xmlns="http://www.w3.org/2000/svg" xmlns:xlink="http://www.w3.org/1999/xlink" x="0px" y="0px"
	 viewBox="0 0 512 512" style="enable-background:new 0 0 512 512;" xml:space="preserve">
<style type="text/css">
	.st3{fill:#C2C6DC;}
</style>
<g id="Page-1">
	<g id="_x30_12---Hand-Tattoo" transform="translate(0 -1)">
		<path id="Shape" class="st3" d="M337,18.3c-11.8-1.1-23.5,2.7-32.4,10.5c-6.7-18.2-24.9-29.5-44.2-27.6
			c-18.7,2.2-33.9,16.2-37.5,34.7c-10.7-8.6-24.8-11.4-38-7.7s-23.7,13.6-28.3,26.5c-8.9-8-20.8-11.9-32.7-10.8
			c-22.2,2.7-38.7,21.6-38.5,43.9v274.5c0,11.3,4.5,22.2,12.5,30.2l14.1,14.1c4.8,4.8,7.5,11.3,7.5,18.1v13
			c-10.2,3.6-17,13.2-17.1,24v34.1c0,9.4,7.6,17.1,17.1,17.1h213.3c9.4,0,17.1-7.6,17.1-17.1v-34.1c0-10.8-6.9-20.4-17.1-24v-19.5
			c0-7.7,3.4-15,9.4-19.8l28.2-23c35.7-29.1,56.4-72.8,56.3-118.9V154.6c0-28.3-22.9-51.2-51.2-51.2V62.2
			C375.7,39.9,359.1,21,337,18.3L337,18.3z M119.5,495.9v-34.1c0-4.7,3.8-8.5,8.5-8.5h196.3c4.7,0,8.5,3.8,8.5,8.5v34.1H119.5z
			 M409.6,154.6v101.9c0.1,41-18.3,79.8-50.1,105.7l-28.2,23c-9.9,8.1-15.7,20.2-15.6,33v17.9H136.5v-11.5
			c0-11.3-4.5-22.2-12.5-30.2l-14.1-14.1c-4.8-4.8-7.5-11.3-7.5-18.1V87.8c-0.3-13.5,9.6-25.1,23-26.9c7.2-0.7,14.4,1.6,19.8,6.5
			c5.3,4.9,8.4,11.7,8.4,18.9c0,4.7,3.8,8.5,8.5,8.5s8.5-3.8,8.5-8.5V70.7c-0.3-13.5,9.6-25.1,23-26.9c7.2-0.7,14.4,1.6,19.8,6.5
			c5.3,4.9,8.4,11.7,8.4,18.9c0,4.7,3.8,8.5,8.5,8.5s8.5-3.8,8.5-8.5V45.1c-0.3-13.5,9.6-25.1,23-26.9c7.2-0.7,14.4,1.6,19.8,6.5
			c5.3,4.9,8.4,11.7,8.4,18.9v17.1c0,4.7,3.8,8.5,8.5,8.5s8.5-3.8,8.5-8.5c0-7.2,3-14.1,8.4-18.9c5.4-4.9,12.6-7.3,19.8-6.5
			c13.4,1.8,23.3,13.4,23,26.9v109.5c0,4.7,3.8,8.5,8.5,8.5s8.5-3.8,8.5-8.5v-51.2C394.3,120.5,409.6,135.7,409.6,154.6z"/>
		<circle id="Oval" class="st0" cx="213.3" cy="231.4" r="8.5"/>
		<circle id="Oval_1_" class="st1" cx="247.5" cy="231.4" r="8.5"/>
		<path id="Shape_1_" class="st1" d="M236.4,251c-3.3-3.3-8.7-3.3-12.1,0l-8.5,8.5c-3.2,3.3-3.2,8.7,0.1,12s8.6,3.3,12,0.1l2.5-2.5
			l2.5,2.5c3.3,3.2,8.7,3.2,12-0.1c3.3-3.3,3.3-8.6,0.1-12L236.4,251z"/>
		<path id="Shape_2_" class="st0" d="M312,188.5c3,0.4,6,0.3,9-0.3c11.4-2.4,19.8-12.2,20.3-23.9s-7-22.2-18.1-25.6
			c-3.3-11.1-13.8-18.6-25.4-18.2s-21.5,8.6-24.1,19.9c-0.9,4.2-0.8,8.6,0.4,12.7l-20.8,23.1c-14.6-6.1-31-6.1-45.7,0l-20.8-23.3
			c1.2-4.2,1.3-8.6,0.3-12.8c-2.6-11.3-12.6-19.5-24.2-19.8c-11.6-0.3-22,7.2-25.3,18.3c-5.2,1.6-9.7,4.8-13,9.1
			c-5.3,7-6.6,16.3-3.5,24.5s10.2,14.2,18.8,16c3.2,0.6,6.4,0.6,9.6,0.1l23.6,26.3c-3.5,11.9-3.2,24.7,0.9,36.4
			c-2.2,4.5-3.3,9.5-3.4,14.6c0,0.8,0.1,1.5,0.2,2.2l-21.2,23.7l-0.9-0.1c-3-0.4-6-0.3-9,0.3c-11.4,2.4-19.8,12.2-20.3,23.9
			c-0.5,11.7,7,22.2,18.1,25.6c3.3,10.8,13.2,18.1,24.5,18.2c12,0,22.3-8.2,25-19.9c0.9-4.2,0.8-8.6-0.4-12.7l9.9-11
			c2.9,5.8,8.7,9.4,15.2,9.4H249c6.4,0,12.3-3.7,15.2-9.4L274,327c-1.2,4.2-1.3,8.5-0.3,12.8c2.2,9.5,9.7,16.9,19.2,19
			c1.9,0.4,3.8,0.6,5.7,0.7c11.3,0,21.2-7.4,24.5-18.2c5.2-1.6,9.8-4.8,13-9.1c5.3-7,6.6-16.3,3.5-24.5s-10.2-14.3-18.9-16
			c-3.2-0.6-6.4-0.6-9.6-0.1L290,267.8c0.1-0.8,0.2-1.5,0.2-2.2c0-5-1.1-10-3.3-14.6c4.1-11.7,4.4-24.5,0.9-36.4l23.4-26.1
			L312,188.5z M162.2,176.9c-3.9-4.3-9.8-6.4-15.6-5.4c-1.1,0.2-2.2,0.1-3.3-0.1c-3-0.6-5.5-2.9-6.4-5.8c-0.8-2.6-0.3-5.4,1.3-7.6
			c1.6-2.2,4.2-3.5,6.9-3.5c4.7,0,8.5-3.8,8.5-8.5c-0.1-4.4,3-8.1,7.4-8.7c4.3-0.6,8.4,2.2,9.4,6.4c0.3,1.5,0.3,3-0.1,4.5
			c-1.6,5.7-0.2,11.8,3.7,16.2l18.6,20.7c-4.5,3.6-8.4,7.9-11.6,12.7L162.2,176.9z M174,315.4c-3.9,4.5-5.3,10.7-3.6,16.5
			c0.3,1.3,0.3,2.7,0,4c-0.8,3.1-3.2,5.5-6.4,6.2c-2.5,0.6-5.2,0-7.2-1.6s-3.2-4.1-3.2-6.7c0-4.7-3.8-8.5-8.5-8.5
			c-4.4,0.1-8.1-3.2-8.6-7.6s2.4-8.4,6.7-9.3c1-0.2,2-0.2,3-0.1c5.8,1.1,11.8-0.9,15.9-5.3l15.4-17.1c3.5,4.7,8.1,8.4,13.4,10.8
			L174,315.4z M249,308.2h-10.1c0-4.7-3.8-8.5-8.5-8.5s-8.5,3.8-8.5,8.5h-10.1l-3.9-19.3c-0.7-3.4-3.3-6-6.6-6.7
			c-5.5-1.1-10.1-4.9-12.3-10.1s-1.6-11.1,1.5-15.8c1.6-2.4,1.8-5.4,0.7-8c-7.7-17.9-2.3-38.7,13.1-50.6s36.9-11.9,52.2,0
			s20.8,32.7,13.1,50.6c-1.1,2.6-0.9,5.6,0.7,8c3.1,4.7,3.6,10.6,1.5,15.8s-6.8,9-12.3,10.1c-3.4,0.7-6,3.3-6.6,6.7L249,308.2z
			 M298.6,302.9c3.9,4.4,9.8,6.4,15.6,5.4c1.1-0.2,2.2-0.1,3.3,0.1c3,0.6,5.5,2.9,6.4,5.8c0.8,2.6,0.3,5.4-1.3,7.6
			c-1.6,2.2-4.2,3.5-6.9,3.5c-4.7,0-8.5,3.8-8.5,8.5c0,2.6-1.2,5.1-3.2,6.7c-2,1.7-4.7,2.3-7.3,1.6c-3-0.7-5.4-3-6.3-6
			c-0.3-1.5-0.3-3,0.1-4.5c1.6-5.7,0.2-11.8-3.7-16.2l-16.9-18.8c5.3-2.4,9.9-6.1,13.4-10.8L298.6,302.9z M298.6,176.9l-18.9,21
			c-3.2-4.8-7.2-9-11.6-12.7l18.6-20.7c3.9-4.5,5.3-10.7,3.6-16.5c-0.3-1.3-0.3-2.7,0-4c0.8-3.1,3.2-5.5,6.4-6.2
			c2.5-0.6,5.2,0,7.3,1.6c2,1.6,3.2,4.1,3.2,6.7c0,4.7,3.8,8.5,8.5,8.5c4.4-0.1,8.1,3.2,8.6,7.6c0.5,4.4-2.4,8.4-6.7,9.3
			c-1,0.2-2,0.2-3,0.1C308.7,170.5,302.7,172.5,298.6,176.9L298.6,176.9z"/>
	</g>
</g>
</svg>
