<?xml version="1.0" encoding="utf-8"?>
<!-- Generator: Adobe Illustrator 24.3.0, SVG Export Plug-In . SVG Version: 6.00 Build 0)  -->
<svg version="1.1" id="Capa_1" xmlns="http://www.w3.org/2000/svg" xmlns:xlink="http://www.w3.org/1999/xlink" x="0px" y="0px"
	 viewBox="0 0 512 512" style="enable-background:new 0 0 512 512;" xml:space="preserve">
<style type="text/css">
	.st3{fill:#C2C6DC;}
</style>
<g>
	<path class="st3" d="M420.3,422c1.7-47.8,11.5-73,19.4-93.6c7.5-19.3,13.9-36,8-60c-6.5-26.2-28.5-49.1-57.7-54.9V98.8L291.2,0H0
		v512h512v-90H420.3z M418.6,275.5c3.6,14.8-0.1,24.5-6.9,42c-8.4,21.7-19.7,50.9-21.5,104.5h-30.5c-1.8-53.4-13-82.7-21.4-104.5
		c-6.8-17.6-10.5-27.3-6.9-42c4.1-16.7,20.4-33.5,43.6-33.5S414.5,258.9,418.6,275.5L418.6,275.5z M300,51.2L338.8,90H300V51.2z
		 M30,482V30h240v90h90v93.5c-28.9,5.7-51.2,28.3-57.7,54.9c-5.9,23.8,0.6,40.6,8,59.9c8,20.7,17.7,46.1,19.4,93.7H240v60H30z
		 M482,482c-6.2,0-206.9,0-212,0v-30h212V482z"/>
	<path class="st0" d="M60,182h120v30H60V182z"/>
	<path class="st0" d="M60,242h180v30H60V242z"/>
	<path class="st0" d="M105,362c-24.8,0-45,20.2-45,45s20.2,45,45,45s45-20.2,45-45S129.8,362,105,362z M105,422c-8.3,0-15-6.7-15-15
		s6.7-15,15-15s15,6.7,15,15S113.3,422,105,422z"/>
</g>
</svg>
