<svg xmlns="http://www.w3.org/2000/svg" xmlns:xlink="http://www.w3.org/1999/xlink" x="0px" y="0px" viewBox="0 0 1000 1000" enable-background="new 0 0 1000 1000" xml:space="preserve">
	<g transform="translate(0.000000,455.000000) scale(0.100000,-0.100000)">
		<path d="M2838.6,3854.6c-231.9-84.3-2433.6-1247.5-2542.9-1343.3c-51.7-46-113.1-126.5-143.7-189.7c-46-93.9-53.7-130.3-51.7-262.5l1.9-153.3l383.2-900.6C696.2,510.7,885.9,70,908.9,27.8c111.1-218.5,400.5-341.1,647.7-279.8c51.7,13.4,251,95.8,446.5,185.9c195.5,88.1,360.3,161,369.8,161c7.7,0,17.2-1040.5,19.2-2312.9l5.7-2314.8l47.9-86.2c34.5-63.2,72.8-99.6,143.7-134.1l95.8-47.9l2548.6-5.7c1849.2-3.8,2577.4,1.9,2654,17.2c141.8,28.8,235.7,120.7,266.4,262.5c15.3,72.8,21.1,749.3,21.1,2368.5V110.2l398.6-174.4c367.9-162.9,408.2-176.3,544.2-182c128.4-7.7,161-1.9,258.7,44.1c197.4,88.1,222.3,126.5,412,573L9900,637.2l-3.8,1053.9l-5.7,1053.9L9603,2896.5c-1335.6,703.3-1780.2,931.3-1887.5,967.7c-145.6,49.8-369.8,59.4-465.6,17.2c-90.1-36.4-180.1-134.1-247.2-266.4c-149.5-298.9-527-576.8-973.4-718.6c-264.4-84.3-435-107.3-747.3-107.3c-427.3,1.9-735.8,74.7-1092.3,258.7c-318.1,166.7-444.6,291.3-680.3,670.7c-21.1,34.5-70.9,88.1-111.1,120.7c-69,55.6-88.1,59.4-239.5,65.2C3014.9,3908.2,2970.8,3902.5,2838.6,3854.6z"/>
	</g>
</svg>