<svg xmlns="http://www.w3.org/2000/svg" xmlns:xlink="http://www.w3.org/1999/xlink" x="0px" y="0px" viewBox="0 0 1000 1000" enable-background="new 0 0 1000 1000" xml:space="preserve">
    <g><path d="M724.1,604.4c-3.7,18.3-19.9,32.1-39.4,32.1c-19.4,0-35.6-13.8-39.4-32.1h-0.8V379.5c0-8.9-7.2-16.1-16.1-16.1s-16.1,7.2-16.1,16.1v208.9v16.1v48.2v48.2v241c0,26.6-21.6,48.2-48.2,48.2c-26.6,0-48.2-21.6-48.2-48.2v-241h-32.1v241c0,26.6-21.6,48.2-48.2,48.2s-48.2-21.6-48.2-48.2v-241v-48.2v-48.2v-16.1V379.5c0-8.9-7.2-16.1-16.1-16.1c-8.9,0-16.1,7.2-16.1,16.1v224.9h-0.8c-3.7,18.3-19.9,32.1-39.4,32.1c-19.4,0-35.6-13.8-39.4-32.1h-0.8v-8v-64.3V395.6c0-88.7,71.9-160.7,160.7-160.7h128.5c88.7,0,160.7,71.9,160.7,160.7v136.6v64.3v8H724.1z M500,202.8c-53.2,0-96.4-43.2-96.4-96.4S446.8,10,500,10s96.4,43.2,96.4,96.4S553.2,202.8,500,202.8z"/></g>
</svg>