<svg version="1.1" xmlns="http://www.w3.org/2000/svg" xmlns:xlink="http://www.w3.org/1999/xlink" x="0px" y="0px" viewBox="0 0 1000 1000" enable-background="new 0 0 1000 1000" xml:space="preserve">
	<g transform="translate(0.000000,511.000000) scale(0.100000,-0.100000)">
		<path d="M4092.6,2402.1c-122.8-44.5-203.2-97.4-446.7-292.1c-347.2-279.4-681.7-414.9-1147.4-461.5c-294.3-29.6-510.2-4.2-675.3,78.3c-57.2,29.6-188.4,131.3-290,226.5c-249.8,232.9-395.9,300.6-628.7,298.5c-410.7-4.2-660.5-224.4-766.3-679.5c-33.9-148.2-38.1-290-38.1-1647v-1481.9l63.5-124.9c80.4-156.6,241.3-292.1,400.1-338.7c99.5-29.6,271-31.7,1263.8-27.5l1151.6,6.3l110.1,57.2c59.3,31.8,144,93.2,184.2,135.5l74.1,76.2l398-76.2c747.3-144,1575-260.4,2387.9-334.5c169.4-14.8,592.7-27.5,984.4-27.5c565.2,0,730.4,6.3,920.9,38.1c499.6,82.6,1149.5,271,1623.7,470c179.9,76.2,186.3,80.4,209.6,165.1c14.8,50.8,25.4,254,27.5,470c2.1,374.7,2.1,383.2-57.2,506c-69.9,150.3-323.9,410.7-506,516.5C9027.2,137,8599.6,276.7,8091.5,361.4C7422.5,471.5,6997,577.3,6656.2,719.2l-156.7,65.6L6290,594.3c-114.3-105.8-226.5-190.5-247.7-190.5c-52.9,0-103.7,42.3-120.7,103.7c-12.7,44.5,8.5,74.1,167.2,222.3l182.1,171.5l-112.2,63.5c-59.3,36-116.4,65.6-124.9,69.9c-10.6,4.2-163-131.3-338.7-300.6c-256.1-243.4-336.6-309.1-381-309.1c-67.7,0-133.4,82.6-114.3,141.8c6.3,21.2,146.1,165.1,309.1,321.8c163,154.6,296.4,287.9,296.4,296.4s-48.7,55-105.8,101.6l-107.9,86.8l-88.9-80.4c-48.7-44.5-264.6-232.9-480.5-421.3c-421.3-366.2-472.1-393.8-541.9-287.9c-16.9,27.5-27.5,67.7-21.2,91c8.5,21.2,226.5,224.4,486.9,448.8l474.2,410.7l-137.6,150.3c-76.2,80.4-192.6,222.3-260.4,311.2c-220.2,296.4-417,421.3-677.4,434C4234.4,2433.9,4156.1,2425.4,4092.6,2402.1z"/>
	</g>
</svg>